<svg id="Bot" xmlns="http://www.w3.org/2000/svg" viewBox="0 0 2000 2000"><path d="M682.11,1143l-207.92-21.72L386.46,921.67,318.12,939.5s50.51,211,107,243.64,249.59,38.63,249.59,38.63Z" style="fill:#1976d2"/><circle cx="723.7" cy="1183.14" r="92.11" transform="translate(-624.64 858.27) rotate(-45)" style="fill:#1a2e35"/><path d="M723.71,1275.38a92.25,92.25,0,1,1,65.21-27A91.67,91.67,0,0,1,723.71,1275.38Zm0-184.22a92,92,0,1,0,65,26.94A91.39,91.39,0,0,0,723.71,1091.16Z" style="fill:#1a2e35"/><circle cx="439.66" cy="1131.81" r="69.08" transform="translate(-252.03 133.88) rotate(-13.5)" style="fill:#1a2e35"/><circle cx="347.3" cy="897.95" r="56.44" transform="translate(-533.22 508.58) rotate(-45)" style="fill:#1a2e35"/><path d="M374.39,860.19h70.38a0,0,0,0,1,0,0v26a0,0,0,0,1,0,0H374.38a2.45,2.45,0,0,1-2.45-2.45V862.64A2.45,2.45,0,0,1,374.39,860.19Z" transform="translate(1283.71 1276.81) rotate(139.82)" style="fill:#1a2e35"/><path d="M329.31,806.81h70a.35.35,0,0,1,.35.35v25.26a.35.35,0,0,1-.35.35h-70a2.45,2.45,0,0,1-2.45-2.45V809.27A2.45,2.45,0,0,1,329.31,806.81Z" transform="translate(1183.07 456.52) rotate(90)" style="fill:#1a2e35"/><path d="M293.08,809.29h70a.35.35,0,0,1,.35.35v25.26a.35.35,0,0,1-.35.35h-70a2.45,2.45,0,0,1-2.45-2.45V811.75a2.45,2.45,0,0,1,2.45-2.45Z" transform="translate(1058.09 323.61) rotate(77.39)" style="fill:#1a2e35"/><path d="M256.32,824.7h70a.35.35,0,0,1,.35.35v25.26a.35.35,0,0,1-.35.35h-70a2.45,2.45,0,0,1-2.45-2.45V827.15A2.45,2.45,0,0,1,256.32,824.7Z" transform="translate(870.6 167.45) rotate(60)" style="fill:#1a2e35"/><rect x="1492.37" y="1206.8" width="67.54" height="458.3" transform="translate(3492.53 2160.05) rotate(156.96)" style="fill:#1976d2"/><circle cx="1406.16" cy="1192.76" r="92.11" transform="translate(-431.55 1343.66) rotate(-45)" style="fill:#1a2e35"/><path d="M1406.27,1285a92.4,92.4,0,1,1,43-10.74A92.45,92.45,0,0,1,1406.27,1285Zm-.23-184.31a92,92,0,1,0,88,119.14l.11,0-.11,0a92.1,92.1,0,0,0-88-119.14Z" style="fill:#1a2e35"/><circle cx="1526.14" cy="1449.54" r="69.08" transform="translate(-279.12 2531.81) rotate(-74.47)" style="fill:#1a2e35"/><circle cx="1630.25" cy="1664.5" r="56.44" transform="translate(-699.49 1640.28) rotate(-45)" style="fill:#1a2e35"/><path d="M1546.22,1694.35h70.38a0,0,0,0,1,0,0v26a0,0,0,0,1,0,0h-70.38a2.45,2.45,0,0,1-2.45-2.45V1696.8a2.45,2.45,0,0,1,2.45-2.45Z" transform="translate(-700.08 2168.16) rotate(-58.64)" style="fill:#1a2e35"/><path d="M1605.88,1730.7h70a.35.35,0,0,1,.35.35v25.26a.35.35,0,0,1-.35.35h-70a2.45,2.45,0,0,1-2.45-2.45v-21.06a2.45,2.45,0,0,1,2.45-2.45Z" transform="translate(505.07 3851.25) rotate(-108.46)" style="fill:#1a2e35"/><path d="M1639.46,1716.88h70a.35.35,0,0,1,.35.35v25.26a.35.35,0,0,1-.35.35h-70a2.45,2.45,0,0,1-2.45-2.45v-21.06a2.45,2.45,0,0,1,2.45-2.45Z" transform="translate(1055.31 4055.96) rotate(-121.07)" style="fill:#1a2e35"/><path d="M1669.45,1690.63h70a.35.35,0,0,1,.35.35v25.26a.35.35,0,0,1-.35.35h-70a2.45,2.45,0,0,1-2.45-2.45v-21.06a2.45,2.45,0,0,1,2.45-2.45Z" transform="translate(1848.61 4108.36) rotate(-138.46)" style="fill:#1a2e35"/><path d="M696.15,1087.33s6.64,646.59,369.51,659.24,378.07-654.61,378.07-659.24c0,0-42.86-96.43-373.79-92.65S696.15,1087.33,696.15,1087.33Z" style="fill:#1976d2"/><rect x="863.79" y="895.7" width="379.19" height="77.78" rx="7.35" transform="translate(2106.76 1869.19) rotate(180)" style="fill:#1a2e35"/><rect x="1040.21" y="264.62" width="26.48" height="133.89" transform="translate(2106.91 663.13) rotate(180)" style="fill:#1a2e35"/><circle cx="1440.4" cy="721.23" r="77.8" transform="translate(-127.77 352.75) rotate(-13.37)" style="fill:#1976d2"/><circle cx="654.91" cy="716.11" r="77.8" transform="translate(-142.19 162.62) rotate(-12.78)" style="fill:#1976d2"/><path d="M1038,369.48s-316.36-3.8-366.44,270.21S889,918.81,966,924c34.89,2.36,109.54,2.6,175.41,1.45,145.83-2.53,248.88-30.76,283.94-166.05a257.07,257.07,0,0,0,7.88-48.46C1442.48,562.65,1342.1,362.18,1038,369.48Z" style="fill:#1976d2"/><path d="M1267.51,786.82,807.9,794a87.24,87.24,0,0,1-88.59-85.86h0a87.24,87.24,0,0,1,85.87-88.59l459.6-7.18a87.24,87.24,0,0,1,88.59,85.87h0A87.24,87.24,0,0,1,1267.51,786.82Z" style="fill:#1a2e35"/><path d="M903.27,698.61a28,28,0,1,1-22.09-32.85A28,28,0,0,1,903.27,698.61Z" style="fill:#fff"/><path d="M1224.36,693.49a28,28,0,1,1-22.09-32.86A28,28,0,0,1,1224.36,693.49Z" style="fill:#fff"/><path d="M1178.16,1344.12a125.11,125.11,0,1,1-115.66-133.9A125.12,125.12,0,0,1,1178.16,1344.12Z" style="fill:#1a2e35"/><path d="M1144.31,1341.65a91.17,91.17,0,1,1-84.28-97.57A91.18,91.18,0,0,1,1144.31,1341.65Z" style="fill:#fff"/><circle cx="1053.45" cy="261.95" r="43.64" transform="translate(123.32 821.63) rotate(-45)" style="fill:#1976d2"/><path d="M983.75,685.7c2.09.22,1,10,7.16,23a57.89,57.89,0,0,0,14.86,19.53,44.87,44.87,0,0,0,54.29,5,57.7,57.7,0,0,0,18.15-16.52c8.37-11.69,9.12-21.51,11.21-21.35.81,0,1.66,2.49,1.67,7.12s-1.32,11.39-5.1,18.91a58.14,58.14,0,0,1-19.65,21.87A53.13,53.13,0,0,1,997.78,737a58.07,58.07,0,0,1-15.37-25.06c-2.36-8.08-2.45-15-1.58-19.52S983,685.57,983.75,685.7Z" style="fill:#fff"/><path d="M1405,813.47c-.46-.27,5.21-8.87,10.67-24.41s10.49-37.82,12.83-62.84a465.18,465.18,0,0,0,1.48-64.35c-.39-8.24-.77-14.91-1.14-19.52s-.43-7.16-.26-7.19.61,2.51,1.25,7.09,1.34,11.26,2,19.51a392.05,392.05,0,0,1-.74,64.71c-2.35,25.19-7.57,47.75-13.68,63.22a121.5,121.5,0,0,1-8.37,17.78C1406.53,811.44,1405.12,813.57,1405,813.47Z" style="fill:#1a2e35"/><path d="M672.29,630.73c.17.06-.4,2.57-1.56,7-.61,2.23-1.33,5-2,8.18s-1.61,6.83-2.22,10.91a243.06,243.06,0,0,0-3.47,28.74,237.88,237.88,0,0,0,6.25,70.34,240.62,240.62,0,0,0,8.47,27.67c1.32,3.91,2.88,7.31,4.1,10.35s2.39,5.62,3.38,7.71c1.93,4.2,2.93,6.57,2.78,6.65s-1.46-2.13-3.68-6.21c-1.13-2-2.45-4.54-3.79-7.56s-3-6.38-4.49-10.28A217.64,217.64,0,0,1,667,756.5a224.18,224.18,0,0,1-6.31-71.06,215.17,215.17,0,0,1,4-28.92c.73-4.1,1.79-7.71,2.6-10.91s1.65-5.92,2.41-8.12C671.23,633.08,672.12,630.68,672.29,630.73Z" style="fill:#1a2e35"/><path d="M694.64,1086.76a10.66,10.66,0,0,1,1.9.55l5.5,1.87,21,7.42,15.17,5.41c5.58,1.87,11.73,3.62,18.3,5.67,13.17,3.91,28,9,44.85,12.94l26.3,6.75c9.16,2.3,18.84,4,28.78,6.18,19.84,4.55,41.36,7.65,63.93,11.3a1142.09,1142.09,0,0,0,148.28,10.61A1142.84,1142.84,0,0,0,1217,1144.88c22.57-3.65,44.1-6.75,63.94-11.3,9.93-2.15,19.62-3.87,28.77-6.17l26.31-6.75c16.85-4,31.68-9,44.85-12.93,6.57-2,12.72-3.8,18.31-5.67l15.16-5.41,21-7.41,5.49-1.86a11.69,11.69,0,0,1,1.91-.56,12.15,12.15,0,0,1-1.81.8l-5.4,2.11-20.88,7.86-15.11,5.63c-5.57,1.94-11.71,3.77-18.26,5.88-13.15,4-28,9.24-44.82,13.32l-26.31,6.91c-9.17,2.36-18.86,4.13-28.81,6.33-19.86,4.66-41.42,7.84-64,11.56a1120,1120,0,0,1-148.66,10.8,1119.53,1119.53,0,0,1-148.62-10.83c-22.61-3.72-44.17-6.9-64-11.56-9.94-2.21-19.64-4-28.8-6.33l-26.31-6.93c-16.85-4.08-31.67-9.28-44.82-13.33-6.55-2.11-12.69-3.93-18.26-5.87l-15.11-5.63-20.88-7.88-5.4-2.1A11.53,11.53,0,0,1,694.64,1086.76Z" style="fill:#1a2e35"/><g style="opacity:0.30000000000000004"><path d="M696.15,1087.33s42.85-88.88,373.79-92.65,373.79,92.65,373.79,92.65S1109.91,1252,696.15,1087.33Z"/></g><path d="M998,390a4.09,4.09,0,0,1-1.14.19l-3.35.3c-2.93.31-7.28.4-12.84,1.07A345.72,345.72,0,0,0,934,399.28,338.87,338.87,0,0,0,701.66,591a347,347,0,0,0-16.45,44.37c-1.71,5.33-2.63,9.59-3.48,12.41-.38,1.3-.68,2.35-.93,3.23a3.78,3.78,0,0,1-.41,1.08,4.06,4.06,0,0,1,.15-1.14c.19-.89.41-2,.68-3.29.7-2.86,1.46-7.17,3-12.56A315.37,315.37,0,0,1,700,590.24,334,334,0,0,1,933.54,397.51a315.28,315.28,0,0,1,47-7c5.59-.51,10-.45,12.91-.58l3.36,0A3.57,3.57,0,0,1,998,390Z" style="fill:#fff"/><path d="M688.42,769.55c-.3.12-2.21-3.56-4.5-9.84a139.61,139.61,0,0,1-8-51.39c.26-6.69,1-10.77,1.27-10.75.8,0-.31,16.5,2.88,36.43S689.17,769.27,688.42,769.55Z" style="fill:#fff"/><path d="M605.44,744.08c-.12.1-1.11-.8-2.67-2.66a48.4,48.4,0,0,1-5.57-8.62,56.25,56.25,0,0,1,8.44-63.64,48,48,0,0,1,7.63-6.86c2-1.39,3.18-2,3.27-1.87.28.37-4.16,3.38-9.52,9.92A58.15,58.15,0,0,0,598.84,732C602.31,739.73,605.81,743.79,605.44,744.08Z" style="fill:#fff"/><path d="M1056.35,231.54c-.11.48-4.5-1.14-11.61-.29-6.92.73-16.87,4.72-22.78,13.79s-5.27,19.86-3.05,26.46c2.18,6.81,5.48,10.13,5.09,10.43-.11.1-1-.61-2.39-2.19a27,27,0,0,1-4.42-7.64,31,31,0,0,1,27.39-42.65,27,27,0,0,1,8.79.83C1055.37,230.86,1056.4,231.39,1056.35,231.54Z" style="fill:#fff"/><path d="M1486.06,684.27c-.54.58-8.22-6.74-19.8-12.29s-22-7.16-21.91-7.94c0-.63,11-.25,23,5.63S1486.57,683.89,1486.06,684.27Z" style="fill:#fff"/><path d="M810,1547.5a3.81,3.81,0,0,1-.63-1c-.44-.79-1-1.74-1.61-2.91l-6-11.3-4.25-8.22-4.63-10c-3.36-7.15-7.14-15.31-10.8-24.55l-5.93-14.43q-2.82-7.64-5.87-15.86c-4.23-10.9-7.82-22.87-12-35.31-7.73-25.12-15.31-53-22-82.61s-11.5-58.1-15.43-84.08c-3.63-26-6.51-49.52-8.08-69.33-1-9.88-1.54-18.85-2-26.73s-.92-14.65-1.09-20.21c-.17-5.37-.31-9.64-.42-12.78,0-1.33,0-2.42,0-3.33a3.39,3.39,0,0,1,.07-1.13,3.92,3.92,0,0,1,.19,1.12c.08.9.18,2,.3,3.32q.33,4.69.9,12.75c.32,5.54.83,12.31,1.52,20.16s1.33,16.8,2.41,26.66c1.8,19.76,4.86,43.19,8.61,69.15,4,25.91,9.1,54.31,15.6,83.87s14.13,57.37,21.72,82.46c4.16,12.43,7.66,24.4,11.8,35.3q3,8.22,5.71,15.87l5.76,14.46c3.55,9.26,7.2,17.45,10.43,24.64l4.43,10q2.19,4.53,4,8.3,3.5,7.26,5.55,11.51l1.38,3A4,4,0,0,1,810,1547.5Z" style="fill:#fff"/><path d="M616.8,1145.52c0,.71-16.19.13-36-1.28s-35.91-3.13-35.85-3.84,16.18-.14,36,1.28S616.85,1144.81,616.8,1145.52Z" style="fill:#fff"/><path d="M431.29,1040.24c-.62.34-9-14-18.76-31.94S395.4,975.47,396,975.13s9,14,18.77,32S431.92,1039.9,431.29,1040.24Z" style="fill:#fff"/><path d="M984.78,1703c0,.18-2.08-.08-5.77-.7a122,122,0,0,1-15.42-3.73,159.59,159.59,0,0,1-22-8.45A167.27,167.27,0,0,1,894.54,1657a159.84,159.84,0,0,1-15.39-17.84,122.33,122.33,0,0,1-8.73-13.25c-1.83-3.26-2.77-5.11-2.61-5.19.42-.26,4.54,6.92,12.77,17.33a184.24,184.24,0,0,0,15.62,17.26A179.6,179.6,0,0,0,942.62,1688a183.07,183.07,0,0,0,21.52,8.85C976.73,1701,984.88,1702.49,984.78,1703Z" style="fill:#fff"/><path d="M1060.43,1474.86a17.88,17.88,0,0,1-3.45.35,90.15,90.15,0,0,1-10,.29,130.22,130.22,0,0,1-36.15-5.87,150.09,150.09,0,0,1-23.55-9.47,153.3,153.3,0,0,1-24.49-15.81,132.76,132.76,0,0,1-51.17-117.86,152.56,152.56,0,0,1,5.17-28.69,150.85,150.85,0,0,1,9.15-23.67,130.55,130.55,0,0,1,20.4-30.42,90.42,90.42,0,0,1,7-7.08,17.06,17.06,0,0,1,2.62-2.28c.19.19-3.28,3.49-8.87,10a138.17,138.17,0,0,0-19.52,30.55,151.86,151.86,0,0,0-8.74,23.46,154.38,154.38,0,0,0-4.86,28.3A131.83,131.83,0,0,0,964.3,1442.5a154.61,154.61,0,0,0,24,15.77,152.52,152.52,0,0,0,23.11,9.63,138.46,138.46,0,0,0,35.65,6.6C1055.63,1474.87,1060.42,1474.58,1060.43,1474.86Z" style="fill:#fff"/><path d="M463.45,1086.56c-.2.42-3.81-1.43-10-2.84a55,55,0,0,0-46.63,11.19c-4.9,4.08-7.28,7.36-7.65,7.08-.21-.12,1.66-3.83,6.45-8.44A50.91,50.91,0,0,1,453.87,1082C460.23,1083.9,463.59,1086.36,463.45,1086.56Z" style="fill:#fff"/><path d="M1191.56,596.3c0,.71-60.54,1.28-135.21,1.28S921.14,597,921.14,596.3,981.66,595,1056.35,595,1191.56,595.59,1191.56,596.3Z" style="fill:#fff"/><path d="M960.83,904.61a7.9,7.9,0,0,1-2.28.37l-6.6.57c-2.86.24-6.37.47-10.46.54s-8.73.32-13.88.16a357.55,357.55,0,0,1-36.07-2.17,365.56,365.56,0,0,1-86-20.26,355,355,0,0,1-33.25-14.16c-4.68-2.15-8.74-4.43-12.35-6.33s-6.67-3.66-9.12-5.15l-5.65-3.45a7.93,7.93,0,0,1-1.88-1.36,8.27,8.27,0,0,1,2.14.91l5.87,3c2.53,1.36,5.63,3,9.3,4.75s7.76,3.94,12.46,6c9.28,4.34,20.56,9,33.28,13.58a393.34,393.34,0,0,0,85.5,20.13c13.43,1.56,25.6,2.44,35.83,2.7,5.12.28,9.75.17,13.82.22s7.57,0,10.44-.1l6.61-.09A7.73,7.73,0,0,1,960.83,904.61Z" style="fill:#fff"/><path d="M1354.42,1126.83a4.92,4.92,0,0,1-1.17.54l-3.55,1.33-13.72,4.88c-6,2.14-13.27,4.65-21.89,7.18s-18.33,5.79-29.3,8.52l-17.17,4.54c-6,1.56-12.27,2.83-18.75,4.34-12.93,3.13-26.93,5.6-41.63,8.37a872.39,872.39,0,0,1-193.93,11.91c-14.93-1-29.13-1.68-42.35-3.21-6.61-.7-13-1.2-19.14-2l-17.59-2.41c-11.23-1.37-21.28-3.37-30.13-4.87s-16.44-3-22.61-4.45l-14.2-3.16-3.69-.89a5.1,5.1,0,0,1-1.23-.38,4.48,4.48,0,0,1,1.29.13l3.74.63,14.29,2.69c6.19,1.25,13.78,2.7,22.65,4s18.91,3.24,30.13,4.5l17.58,2.23c6.11.76,12.51,1.21,19.11,1.86,13.2,1.43,27.37,2.08,42.26,3,29.82,1.2,62.65,1.26,97-.74,34.36-2.22,66.94-6.3,96.38-11.14,14.67-2.7,28.65-5.08,41.57-8.12,6.47-1.46,12.77-2.68,18.74-4.18l17.17-4.37c11-2.62,20.73-5.71,29.36-8.15s16-4.76,22-6.75l13.86-4.42,3.63-1.09A5.2,5.2,0,0,1,1354.42,1126.83Z" style="fill:#fff"/></svg>