<svg id="Layer_1" data-name="Layer 1" xmlns="http://www.w3.org/2000/svg" viewBox="0 0 2000 2000"><rect x="688.5" y="1507.91" width="642.4" height="131.77" rx="7.35" transform="translate(2019.4 3147.59) rotate(180)" style="fill:#1a2e35"/><rect x="987.39" y="438.78" width="44.86" height="226.83" transform="translate(2019.64 1104.38) rotate(180)" style="fill:#1a2e35"/><circle cx="1665.35" cy="1212.33" r="131.81" transform="translate(-235.26 418.1) rotate(-13.37)" style="fill:#1976d2"/><circle cx="334.65" cy="1203.65" r="131.81" transform="translate(-257.97 103.85) rotate(-12.78)" style="fill:#1976d2"/><path d="M983.66,616.43S447.71,610,362.87,1074.18s368.4,472.87,498.75,481.67c59.12,4,185.58,4.39,297.18,2.46,247-4.29,421.63-52.11,481-281.32a435.71,435.71,0,0,0,13.35-82.09C1668.89,943.68,1498.83,604.06,983.66,616.43Z" style="fill:#1976d2"/><path d="M1372.45,1323.44l-778.62,12.15a147.78,147.78,0,0,1-150.08-145.46h0a147.78,147.78,0,0,1,145.46-150.08l778.63-12.16a147.79,147.79,0,0,1,150.08,145.47h0A147.79,147.79,0,0,1,1372.45,1323.44Z" style="fill:#1a2e35"/><path d="M755.4,1174A47.43,47.43,0,1,1,718,1118.35,47.45,47.45,0,0,1,755.4,1174Z" style="fill:#fff"/><path d="M1299.36,1165.33a47.43,47.43,0,1,1-37.43-55.66A47.43,47.43,0,0,1,1299.36,1165.33Z" style="fill:#fff"/><circle cx="1009.82" cy="434.26" r="73.94" transform="translate(-11.3 841.24) rotate(-45)" style="fill:#1976d2"/><path d="M891.74,1152.13c3.53.38,1.77,17,12.12,39A98.05,98.05,0,0,0,929,1224.24c11.76,10.19,27.4,18,44.56,19.77,17.19,1.37,34-3.48,47.41-11.37a98,98,0,0,0,30.75-28c14.18-19.81,15.45-36.44,19-36.18,1.38,0,2.82,4.22,2.83,12.07s-2.23,19.29-8.63,32-17.38,26.36-33.3,37.05A90,90,0,0,1,915.5,1239c-13.72-13.39-22.11-28.79-26-42.47s-4.15-25.37-2.68-33.06S890.38,1151.91,891.74,1152.13Z" style="fill:#fff"/><path d="M1605.34,1368.6c-.79-.46,8.82-15,18.07-41.36,9.49-26.18,17.77-64.07,21.73-106.46,4.24-42.41,3.59-81.12,2.51-109-.65-14-1.31-25.26-1.93-33.06s-.73-12.14-.43-12.18,1,4.24,2.11,12,2.27,19.06,3.32,33.06c1.88,28,3,66.89-1.25,109.61-4,42.68-12.83,80.9-23.18,107.1a205.66,205.66,0,0,1-14.18,30.14C1608,1365.15,1605.59,1368.76,1605.34,1368.6Z" style="fill:#1a2e35"/><path d="M364.08,1059c.29.09-.67,4.34-2.64,11.92-1,3.78-2.24,8.41-3.34,13.86s-2.72,11.57-3.76,18.49a411,411,0,0,0-5.87,48.67,403.69,403.69,0,0,0,10.58,119.17A409.65,409.65,0,0,0,373.4,1318c2.24,6.63,4.88,12.38,7,17.53s4,9.53,5.73,13.06c3.27,7.11,5,11.13,4.7,11.27s-2.46-3.6-6.22-10.52c-1.92-3.44-4.16-7.7-6.43-12.81s-5.16-10.81-7.6-17.42a366.92,366.92,0,0,1-15.38-47,379.79,379.79,0,0,1-10.68-120.39,365.63,365.63,0,0,1,6.85-49c1.25-6.94,3.05-13.06,4.42-18.48s2.78-10,4.07-13.75C362.29,1063,363.8,1058.92,364.08,1059Z" style="fill:#1a2e35"/><path d="M915.82,651.15a7,7,0,0,1-1.93.32l-5.66.52c-5,.51-12.35.67-21.77,1.8a586.88,586.88,0,0,0-79.09,13.11A574.11,574.11,0,0,0,413.85,991.66,586.41,586.41,0,0,0,386,1066.83c-2.89,9-4.45,16.24-5.9,21-.63,2.19-1.15,4-1.57,5.47a6.43,6.43,0,0,1-.69,1.83,6.53,6.53,0,0,1,.25-1.93c.32-1.51.7-3.34,1.16-5.57,1.18-4.86,2.47-12.15,5.12-21.28,4.78-18.4,13.19-44.71,26.7-76A565.59,565.59,0,0,1,470,886.55,556.81,556.81,0,0,1,693.53,702.06,564.85,564.85,0,0,1,806.68,663.9c33.24-7.33,60.67-10.6,79.64-11.8,9.47-.87,16.87-.76,21.87-1l5.69-.08A6.06,6.06,0,0,1,915.82,651.15Z" style="fill:#fff"/><path d="M391.41,1294.19c-.51.21-3.74-6-7.62-16.68a237,237,0,0,1-13.64-87c.44-11.33,1.61-18.26,2.15-18.21,1.37.06-.53,28,4.88,61.7C382.35,1267.73,392.69,1293.72,391.41,1294.19Z" style="fill:#fff"/><path d="M250.84,1251c-.21.18-1.89-1.35-4.52-4.5a81.39,81.39,0,0,1-9.45-14.6,95.27,95.27,0,0,1,14.31-107.81,81.2,81.2,0,0,1,12.92-11.63c3.36-2.36,5.38-3.39,5.54-3.17.48.62-7.05,5.73-16.13,16.8a98.56,98.56,0,0,0-13.86,104.48C245.53,1243.67,251.47,1250.55,250.84,1251Z" style="fill:#fff"/><path d="M1014.72,382.73c-.18.82-7.62-1.92-19.65-.48-11.73,1.23-28.6,8-38.6,23.35-9.81,15.5-8.94,33.65-5.17,44.83,3.7,11.54,9.29,17.16,8.62,17.67-.19.17-1.74-1-4-3.71a45.37,45.37,0,0,1-7.48-12.94c-4.74-11.54-6.36-31.14,4.41-48.2,11-16.88,29.51-23.56,42-24.06a45.48,45.48,0,0,1,14.88,1.41C1013.07,381.58,1014.81,382.49,1014.72,382.73Z" style="fill:#fff"/><path d="M1742.7,1149.71c-.91,1-13.91-11.42-33.54-20.81-19.53-9.61-37.32-12.14-37.11-13.46,0-1.07,18.66-.43,39,9.54C1731.48,1134.79,1743.57,1149.08,1742.7,1149.71Z" style="fill:#fff"/><path d="M1243.79,1000.68c0,1.2-102.57,2.18-229.06,2.18s-229.07-1-229.07-2.18,102.54-2.17,229.07-2.17S1243.79,999.48,1243.79,1000.68Z" style="fill:#fff"/><path d="M852.92,1523c0,.15-1.33.36-3.88.63l-11.17,1c-4.86.42-10.8.81-17.72.92s-14.8.54-23.51.27a605.15,605.15,0,0,1-61.12-3.67,621.12,621.12,0,0,1-145.73-34.32,606.23,606.23,0,0,1-56.33-24c-7.92-3.64-14.8-7.51-20.92-10.74s-11.29-6.18-15.45-8.72l-9.57-5.84c-2.16-1.38-3.26-2.17-3.18-2.3s1.32.41,3.62,1.54l10,5.12c4.27,2.31,9.52,5.08,15.75,8.05s13.15,6.66,21.11,10.11c15.72,7.35,34.83,15.2,56.38,23A666.64,666.64,0,0,0,736,1518.12c22.76,2.63,43.37,4.14,60.71,4.57,8.66.47,16.51.29,23.41.37s12.83,0,17.68-.17l11.2-.14C851.55,1522.76,852.91,1522.84,852.92,1523Z" style="fill:#fff"/></svg>