<svg id="Layer_1" data-name="Layer 1" xmlns="http://www.w3.org/2000/svg" viewBox="0 0 2000 2000"><path d="M316.91,1434.44s-45.83,321.65-6.8,326,110-293.59,110-293.59Z" style="fill:#999"/><path d="M935.09,1459.52s46,321.63,85,317.13,24-308.78,24-308.78Z" style="fill:#999"/><path d="M734.09,505.33S452,496.11,324.2,590.93s-112.15,841.82-55.41,925.28,873.71,116.4,920.29,0S1086.61,1163.35,1024,1088.46,895.49,474.37,734.09,505.33Z" style="fill:#999"/><path d="M1079.34,555.82S1270.55,717,1299.83,702s192.94-417.46,203-412.13.73,40.84.73,40.84,28.93-62.43,33.2-48.74-10.5,55.74-10.5,55.74,24.28-57.59,30-46.13-5.51,50.62-5.51,50.62,27.81-36,30.91-22.66-13.44,38.18-18.77,60.48-60,422.67-163.35,483.92S1028.08,731,1008.17,705.82,1079.34,555.82,1079.34,555.82Z" style="fill:#999"/><path d="M1511.07,380.69c5.65-5.59,8.2-11.8,7.59-18.47-1.27-13.8-16.09-24-16.71-24.42l-4.49,6.6c.12.08,12.34,8.54,13.25,18.58.38,4.22-1.33,8.16-5.25,12Z" style="fill:#999"/><path d="M1543.65,444.62s-97.46-42.31-105.33-42.32-26,36.36-21.68,52.46,94.55,59.66,114.31,51.33S1561.3,452.21,1543.65,444.62Z" style="fill:#999"/><path d="M769.07,196.72s-36.83-4.57-50.16,32.2-5.39,136.43,53.42,119.75S784.7,192.79,769.07,196.72Z" style="fill:#999"/><path d="M884.53,1156.27s-852.29,39.82-260.32,230c145.62,46.77,516.52,28.07,573.69,0S1556.16,1229.29,884.53,1156.27Z" style="fill:#999"/><path d="M1550.49,497.6s-106.15-71.8-137.84-55.05-107.37,212.92-107.37,212.92C1291.5,654,1045,414.49,928.44,462.2c-26.91,11,11.71,207.12,40.19,224.84s303.13,303.76,411.09,245.09C1418.33,911.15,1572.47,510.28,1550.49,497.6Z" style="fill:#999"/><path d="M765.94,299.19s1.43,149.22-4.6,155.48c-10.18,10.6-76.85,8.57-104.57,36.1s130.81,85.43,208.28,80.7c51.57-3.15,104-109.87,67.54-110s-60.38-9.3-59.55-36.08,1.07-51.13,1.07-51.13S771.36,303.1,765.94,299.19Z" style="fill:#999"/><path d="M902.51,458.43s29.29,69.75-24.09,74.68c-62.78,5.8-141.67-66-153.82-66.58C617.14,461,581.66,498,546.92,540.76s37.55,697,74.08,702.62,540-137.61,557.59-141.45S1077.76,504.81,1066.38,503.4,981.76,439,902.51,458.43Z" style="fill:#999"/><path d="M1196.81,1776.14s-33.15,91.37,28.65,94.95,151.89,18.88,179.15-1.13-130.92-78.4-138-110.17S1196.81,1776.14,1196.81,1776.14Z" style="fill:#999"/><path d="M1492.32,1573.71s16.35,101.35,73.38,77.28,155.33-40.9,171-70.89-162.78-21.76-183.16-47.14S1492.32,1573.71,1492.32,1573.71Z" style="fill:#999"/><path d="M611.86,1174.83s.39-178.53,478.34-184c225.87-2.59,268.92,714.7,268.92,714.7-47.35,5.22-235.73,54.36-250-2.79s-108.72-377.47-108.72-377.47C938.36,1313.84,624.19,1413.17,611.86,1174.83Z" style="fill:#999"/><path d="M866.37,975.87s-21.32-99.74-62.1-101.57S670.63,899,655.22,881s91.93-405.58,50.46-411c-83.41-10.84-133.46,28.36-175.8,95.48C476.33,650.39,449.68,996.69,501,1056,545.92,1107.91,866.06,1021.22,866.37,975.87Z" style="fill:#999"/><path d="M719,889.51c23.42,0,74.38-9.42,86-11.62l-1.35-7.17c-31.15,5.91-83.63,14.06-91.83,10.87-13.61-5.36-6.64-85.7-1.56-144.36,4.34-50.07,8.44-97.36,3.77-117l-7.1,1.7c4.4,18.47.35,65.19-3.94,114.65-7.79,89.86-11.26,144.92,6.15,151.77C711.1,889.16,714.55,889.51,719,889.51Z" style="fill:#999"/><path d="M1080.38,653.25l5.54-4.75c-20.33-23.71-36.35-70.15-36.52-70.62l-6.9,2.37C1043.17,582.2,1059.15,628.49,1080.38,653.25Z" style="fill:#999"/><rect x="886.87" y="617.72" width="319.97" height="384.36" transform="translate(-35.27 47.77) rotate(-2.57)" style="fill:#999"/><path d="M839.91,996.69s224.4-152.35,375.39-104.54c185,58.58,369.43,568.35,369.43,568.35-100.21,79.83-145.46,142.12-184.4,99.25-164-180.59-356.24-497.53-376.38-471.29S833.37,1087.83,839.91,996.69Z" style="fill:#999"/><path d="M860.73,885.13s27.51-41.23,27.6-39.31,8.58,37.69,8.58,37.69,81.06-46.9,84.67-26-5.51,62.67-37.25,81.34S878,985.93,864.77,975,826,919.27,860.73,885.13Z" style="fill:#999"/><path d="M779.09,171.89s111.85-39.37,149.57,6.71,35.92,204.57-48.19,214C759.09,406.16,718.07,228.33,779.09,171.89Z" style="fill:#999"/><circle cx="822.28" cy="309.55" r="17.64" style="fill:#999"/><ellipse cx="932.09" cy="263.17" rx="7.52" ry="9.48" transform="matrix(0.97, -0.25, 0.25, 0.97, -36.29, 246.34)" style="fill:#999"/><ellipse cx="853.23" cy="268.87" rx="7.52" ry="9.48" transform="translate(-37.21 182.77) rotate(-11.97)" style="fill:#999"/><path d="M943.79,141.36s18.3,41.49-20,56.52c-45.6,17.87-102.44-25.64-122.47-13.78s9.17,61.16-31.15,85.87c-27.51,16.86-52.18-26.29-39.35-78.65,14-57,64.18-54.69,75.87-64.15s-17.06-10-7.49-24.55S897.18,57.46,943.79,141.36Z" style="fill:#999"/><path d="M754,284.68s-4.53-21-17.07-10.55-4.57,43.3,11.76,49S757.22,292.91,754,284.68Z" style="fill:#999"/><path d="M923.74,350.54c-10-4.93,4.79-29.63-33.75-36.67-68.35-12.49-38.17,33.74-73.12,40.71s-60.82-116.48-33-139.43c12-9.94-59.44-10.43-25.14,105.18,2.24,7.57-23.28,110,119.72,115.14,26.76,1,60.19-25.34,69.74-45.29,16.76-35,5.61-94.15,2.17-101.37C950.33,288.81,939.75,358.39,923.74,350.54Z" style="fill:#999"/><path d="M904.45,317.53a15,15,0,0,0,7.86-1.77,6,6,0,0,0,2.68-4c2-9.26-15.19-35.93-20.5-43.88L888.33,272c11,16.46,19.64,33.27,19.49,37.75-3.82,1.44-14.57-.94-22.92-4.18l-2.68,6.89C884.91,313.53,895.78,317.53,904.45,317.53Z" style="fill:#999"/><path d="M885.85,343.4a27.36,27.36,0,0,0,14.06-4.23l-3.11-4.6c-.07.05-7.48,4.94-15.3,2.67-5.54-1.62-10.11-6.48-13.6-14.43L862.82,325c4.19,9.56,10,15.47,17.19,17.55A21,21,0,0,0,885.85,343.4Z" style="fill:#999"/><path d="M1605,1548s12.83,32.43,0,38.41-102.56,11.88-107,12.72,27.8,67.18,41.07,69.08,193.36-20.64,208.53-69.08S1625.56,1549.91,1605,1548Z" style="fill:#999"/><path d="M1319.11,1802.48s-14.57,41.59-26,42-105.05-25.71-105.05-25.71-1.91,69.54,12.4,76.57,200,34.93,238.64,12S1319.11,1802.48,1319.11,1802.48Z" style="fill:#999"/><path d="M894,263.17A35.93,35.93,0,1,1,930,299.09,36,36,0,0,1,894,263.17Zm5.55,0A30.38,30.38,0,1,0,930,232.79,30.41,30.41,0,0,0,899.58,263.17Z" style="fill:#999"/><path d="M806.73,263.17a35.93,35.93,0,1,1,35.93,35.92A36,36,0,0,1,806.73,263.17Zm5.54,0a30.38,30.38,0,1,0,30.39-30.38A30.42,30.42,0,0,0,812.27,263.17Z" style="fill:#999"/><path d="M875,272.65a83,83,0,0,1,22.09-2l.35-5.53a86.6,86.6,0,0,0-23.81,2.18Z" style="fill:#999"/><rect x="748.44" y="268.43" width="61.15" height="5.55" transform="translate(-18.42 60.22) rotate(-4.38)" style="fill:#999"/><path d="M709.93,466.05s32.38-22.93,62.4-6.93c52.95,28.22,102.79,73.2,102.79,73.2s17.75-82.27,30-84S965.88,439,964.9,458s-1.29,114.49-29.09,113.61-60.69-25.21-60.69-25.21S865,584,835.7,590.29C788,600.48,699.83,486.08,709.93,466.05Z" style="fill:#999"/><path d="M806.2,888.76s16.62,111.56,33.71,107.93,38.51-12,38.51-12-24.63-108.86-31.95-108.86C832.78,875.79,806.2,888.76,806.2,888.76Z" style="fill:#999"/><path d="M904.6,161.56c2.11-16.79-1.32-30.5-10.21-40.75-15.66-18.07-42.39-18.73-43.52-18.75l-.1,5.55c.26,0,25.44.66,39.45,16.86,7.8,9,10.78,21.25,8.88,36.4Z" style="fill:#999"/><path d="M892.75,166.43c.5-25.36-32.52-42.86-33.92-43.59l-2.57,4.92c.32.16,31.37,16.64,31,38.56Z" style="fill:#999"/><path d="M1331.33,1482.27l5.49-.81c-.12-.83-12.57-84.13-37.67-169.62-33.93-115.51-73.66-179.84-118.09-191.17-90.56-23.11-126.77,26-168.68,82.79-29.51,40-63,85.31-121.37,109.21l2.1,5.12c59.85-24.48,93.79-70.47,123.73-111,40.74-55.2,75.88-102.88,162.85-80.7C1281.41,1152,1330.85,1479,1331.33,1482.27Z" style="fill:#999"/><path d="M907.64,1498.53s44.27-369.14-75.54-415.43c-54-20.84-413.6-97.54-454.65-38.83s-52.85,432.59,0,454.26S907.64,1498.53,907.64,1498.53Z" style="fill:#999"/><path d="M1591.67,1408s-221,112.57-214.26,147.93c5.18,27.29,19.07,62.45,61.34,52.25,51.92-12.53,152.34-94.48,173.78-127.91S1591.67,1408,1591.67,1408Z" style="fill:#999"/><path d="M1369.18,1689.84s-251.72-1.32-260,12.87c-14.05,24-3.09,79.24,24.61,76.73,46.34-4.2,182.91-1.38,225.37-5.79C1398.62,1769.56,1369.18,1689.84,1369.18,1689.84Z" style="fill:#999"/><path d="M926.55,941.53l6.77-3c-2.68-6.14-20.81-38.43-21.58-39.8l-6.44,3.62C911.76,913.9,924.52,936.88,926.55,941.53Z" style="fill:#999"/><path d="M918,916.16C931.31,905,976.64,867,976.64,867l-4.75-5.66s-45.33,38-58.63,49.15Z" style="fill:#999"/><path d="M924.57,930.15c1.22-.56,30.24-14.08,55.77-41.53l-5.41-5a193.06,193.06,0,0,1-53.45,39.86Z" style="fill:#999"/><path d="M324,1432.44s-45.83,321.65-6.8,326,110-293.59,110-293.59Z" style="fill:#241833"/><path d="M942.23,1457.52s46,321.63,85,317.13,24-308.78,24-308.78Z" style="fill:#241833"/><path d="M741.22,503.33s-282.08-9.22-409.89,85.6-112.15,841.82-55.41,925.28,873.71,116.4,920.3,0-102.48-352.86-165.14-427.75S902.62,472.37,741.22,503.33Z" style="fill:#60858a"/><path d="M1086.47,553.82S1277.68,715,1307,700s192.94-417.46,203-412.13.74,40.84.74,40.84,28.92-62.43,33.2-48.74-10.51,55.74-10.51,55.74,24.28-57.59,30-46.13-5.51,50.62-5.51,50.62,27.81-36,30.91-22.66S1575.36,355.69,1570,378s-60,422.67-163.35,483.92S1035.21,729,1015.3,703.82,1086.47,553.82,1086.47,553.82Z" style="fill:#eb7979"/><path d="M1518.2,378.69c5.65-5.59,8.2-11.8,7.59-18.47-1.27-13.8-16.08-24-16.71-24.42l-4.49,6.6c.12.08,12.35,8.54,13.25,18.58.38,4.22-1.33,8.16-5.25,12Z" style="fill:#241833"/><path d="M1550.78,442.62s-97.46-42.31-105.33-42.32-26,36.36-21.68,52.46,94.55,59.66,114.31,51.33S1568.43,450.21,1550.78,442.62Z" style="fill:#fffadd"/><path d="M776.2,194.72s-36.83-4.57-50.16,32.2-5.39,136.43,53.42,119.75S791.83,190.79,776.2,194.72Z" style="fill:#241833"/><path d="M891.66,1154.27s-852.28,39.82-260.32,230c145.62,46.77,516.52,28.07,573.69,0S1563.29,1227.29,891.66,1154.27Z" style="fill:#4f6e72"/><path d="M1557.62,495.6s-106.15-71.8-137.84-55.05-107.37,212.92-107.37,212.92c-13.78-1.5-260.31-241-376.84-193.27-26.91,11,11.71,207.12,40.19,224.84s303.13,303.76,411.1,245.09C1425.46,909.15,1579.6,508.28,1557.62,495.6Z" style="fill:#f8b974"/><path d="M773.07,297.19s1.43,149.22-4.59,155.48c-10.19,10.6-76.86,8.57-104.58,36.1s130.81,85.43,208.28,80.7c51.57-3.15,104-109.87,67.54-110s-60.38-9.3-59.54-36.08,1.06-51.13,1.06-51.13S778.49,301.1,773.07,297.19Z" style="fill:#eb7979"/><path d="M909.65,456.43s29.28,69.75-24.1,74.68c-62.77,5.8-141.67-66-153.82-66.58C624.27,459,588.79,496,554.05,538.76s37.55,697,74.08,702.62,540-137.61,557.59-141.45-100.83-597.12-112.2-598.53S988.89,437,909.65,456.43Z" style="fill:#f8b974"/><path d="M1203.94,1774.14s-33.15,91.37,28.65,94.95,151.89,18.88,179.15-1.13-130.92-78.4-138-110.17S1203.94,1774.14,1203.94,1774.14Z" style="fill:#ed797e"/><path d="M1499.46,1571.71s16.34,101.35,73.37,77.28,155.33-40.9,171-70.89S1581,1556.34,1560.63,1531,1499.46,1571.71,1499.46,1571.71Z" style="fill:#ed797e"/><path d="M619,1172.83s.39-178.53,478.34-184c225.88-2.59,268.92,714.7,268.92,714.7-47.35,5.22-235.73,54.36-250-2.79s-108.72-377.47-108.72-377.47C945.49,1311.84,631.32,1411.17,619,1172.83Z" style="fill:#241833"/><path d="M873.5,973.87s-21.32-99.74-62.09-101.57S677.77,897,662.35,879s91.93-405.58,50.46-411C629.4,457.19,579.35,496.39,537,563.51c-53.55,84.88-80.2,431.18-28.91,490.44C553.06,1105.91,873.19,1019.22,873.5,973.87Z" style="fill:#f8b974"/><path d="M726.11,887.51c23.42,0,74.38-9.42,86-11.62l-1.35-7.17c-31.15,5.91-83.63,14.06-91.83,10.87-13.61-5.36-6.64-85.7-1.55-144.36,4.34-50.07,8.43-97.36,3.76-117L714,620c4.41,18.47.35,65.19-3.94,114.65-7.79,89.86-11.26,144.92,6.15,151.77C718.23,887.16,721.68,887.51,726.11,887.51Z" style="fill:#241833"/><path d="M1087.51,651.25l5.54-4.75c-20.32-23.71-36.35-70.15-36.52-70.62l-6.89,2.37C1050.31,580.2,1066.28,626.49,1087.51,651.25Z" style="fill:#241833"/><rect x="894.01" y="615.72" width="319.97" height="384.36" transform="translate(-35.18 48.09) rotate(-2.57)" style="fill:#eb703d"/><path d="M847,994.69s224.4-152.35,375.4-104.54c185,58.58,369.42,568.35,369.42,568.35-100.2,79.83-145.46,142.12-184.4,99.25-164-180.59-356.24-497.53-376.38-471.29S840.5,1085.83,847,994.69Z" style="fill:#241833"/><path d="M867.86,883.13s27.51-41.23,27.6-39.31,8.59,37.69,8.59,37.69,81.05-46.9,84.67-26-5.52,62.67-37.26,81.34S885.1,983.93,871.9,973,833.14,917.27,867.86,883.13Z" style="fill:#eb7979"/><path d="M786.22,169.89s111.86-39.37,149.57,6.71,35.93,204.57-48.19,214C766.23,404.16,725.2,226.33,786.22,169.89Z" style="fill:#ed797e"/><circle cx="829.41" cy="307.55" r="17.64" style="fill:#eb5f74"/><ellipse cx="939.22" cy="261.17" rx="7.52" ry="9.48" transform="translate(-35.55 248.09) rotate(-14.77)" style="fill:#241833"/><ellipse cx="860.36" cy="266.87" rx="7.52" ry="9.48" transform="translate(-36.64 184.21) rotate(-11.97)" style="fill:#241833"/><path d="M950.93,139.36s18.29,41.49-20.06,56.52c-45.59,17.87-102.44-25.64-122.46-13.78s9.16,61.16-31.16,85.87c-27.51,16.86-52.17-26.29-39.35-78.65,14-57,64.19-54.69,75.87-64.15s-17-10-7.49-24.55S904.31,55.46,950.93,139.36Z" style="fill:#241833"/><path d="M761.12,282.68s-4.52-21-17.06-10.55-4.58,43.3,11.75,49S764.35,290.91,761.12,282.68Z" style="fill:#ed797e"/><path d="M930.87,348.54c-10-4.93,4.8-29.63-33.75-36.67C828.77,299.38,859,345.61,824,352.58S763.19,236.1,791,213.15c12-9.94-59.45-10.43-25.15,105.18,2.25,7.57-23.28,110,119.72,115.14,26.76,1,60.19-25.34,69.74-45.29,16.76-35,5.62-94.15,2.17-101.37C957.46,286.81,946.89,356.39,930.87,348.54Z" style="fill:#241833"/><path d="M911.59,315.53a14.94,14.94,0,0,0,7.85-1.77,6,6,0,0,0,2.68-4c2-9.26-15.19-35.93-20.5-43.88L895.47,270c11,16.46,19.63,33.27,19.48,37.75-3.82,1.44-14.56-.94-22.91-4.18l-2.69,6.89C892,311.53,902.91,315.53,911.59,315.53Z" style="fill:#241833"/><path d="M893,341.4A27.36,27.36,0,0,0,907,337.17l-3.11-4.6c-.07.05-7.47,4.94-15.3,2.67-5.53-1.62-10.11-6.48-13.59-14.43L870,323c4.19,9.56,10,15.47,17.19,17.55A21,21,0,0,0,893,341.4Z" style="fill:#fffadd"/><path d="M1612.14,1546s12.83,32.43,0,38.41-102.55,11.88-107,12.72,27.8,67.18,41.07,69.08,193.36-20.64,208.53-69.08S1632.69,1547.91,1612.14,1546Z" style="fill:#241833"/><path d="M1326.24,1800.48s-14.57,41.59-26,42-105-25.71-105-25.71-1.91,69.54,12.41,76.57,200,34.93,238.63,12S1326.24,1800.48,1326.24,1800.48Z" style="fill:#241833"/><path d="M901.17,261.17a35.92,35.92,0,1,1,35.92,35.92A36,36,0,0,1,901.17,261.17Zm5.54,0a30.38,30.38,0,1,0,30.38-30.38A30.41,30.41,0,0,0,906.71,261.17Z" style="fill:#fffadd"/><path d="M813.86,261.17a35.93,35.93,0,1,1,35.93,35.92A36,36,0,0,1,813.86,261.17Zm5.55,0a30.38,30.38,0,1,0,30.38-30.38A30.41,30.41,0,0,0,819.41,261.17Z" style="fill:#fffadd"/><path d="M882.09,270.65a83,83,0,0,1,22.09-2l.35-5.53a86.6,86.6,0,0,0-23.81,2.18Z" style="fill:#fffadd"/><rect x="755.57" y="266.43" width="61.15" height="5.55" transform="matrix(1, -0.08, 0.08, 1, -18.25, 60.76)" style="fill:#fffadd"/><path d="M717.06,464.05s32.38-22.93,62.41-6.93c52.94,28.22,102.78,73.2,102.78,73.2s17.75-82.27,30-84S973,437,972,456,970.74,570.52,943,569.64s-60.7-25.21-60.7-25.21S872.09,582,842.84,588.29C795.15,598.48,707,484.08,717.06,464.05Z" style="fill:#fffadd"/><path d="M813.33,886.76S830,998.32,847,994.69s38.51-12,38.51-12S860.93,873.79,853.6,873.79C839.91,873.79,813.33,886.76,813.33,886.76Z" style="fill:#fffadd"/><path d="M911.73,159.56c2.12-16.79-1.32-30.5-10.21-40.75-15.66-18.07-42.39-18.73-43.52-18.75l-.09,5.55c.25,0,25.43.66,39.44,16.86,7.8,9,10.78,21.25,8.88,36.4Z" style="fill:#fffadd"/><path d="M899.89,164.43c.49-25.36-32.52-42.86-33.93-43.59l-2.57,4.92c.32.16,31.38,16.64,31,38.56Z" style="fill:#fffadd"/><path d="M1338.47,1480.27l5.48-.81c-.12-.83-12.57-84.13-37.67-169.62-33.93-115.51-73.66-179.84-118.09-191.17-90.55-23.11-126.76,26-168.68,82.79-29.51,40-63,85.31-121.36,109.21l2.09,5.12c59.86-24.48,93.79-70.47,123.73-111,40.74-55.2,75.88-102.88,162.85-80.7C1288.54,1150,1338,1477,1338.47,1480.27Z" style="fill:#fffadd"/><path d="M914.77,1496.53S959,1127.39,839.23,1081.1c-54-20.84-413.59-97.54-454.65-38.83s-52.85,432.59,0,454.26S914.77,1496.53,914.77,1496.53Z" style="fill:#60858a"/><path d="M1598.8,1406s-221,112.57-214.26,147.93c5.19,27.29,19.08,62.45,61.34,52.25,51.92-12.53,152.35-94.48,173.78-127.91S1598.8,1406,1598.8,1406Z" style="fill:#fffadd"/><path d="M1376.31,1687.84s-251.72-1.32-260,12.87c-14,24-3.09,79.24,24.61,76.73,46.34-4.2,182.91-1.38,225.37-5.79C1405.75,1767.56,1376.31,1687.84,1376.31,1687.84Z" style="fill:#fffadd"/><path d="M933.68,939.53l6.77-3c-2.68-6.14-20.8-38.43-21.58-39.8l-6.44,3.62C918.89,911.9,931.65,934.88,933.68,939.53Z" style="fill:#241833"/><path d="M925.14,914.16C938.44,903,983.77,865,983.77,865L979,859.35s-45.33,38-58.63,49.15Z" style="fill:#241833"/><path d="M931.71,928.15c1.22-.56,30.23-14.08,55.76-41.53l-5.41-5a193.25,193.25,0,0,1-53.44,39.86Z" style="fill:#241833"/></svg>