<svg id="Bot" xmlns="http://www.w3.org/2000/svg" viewBox="0 0 2000 2000"><path d="M1052.83,1197.17l-156.39-16.34-66-150.17L779,1044.07s38,158.69,80.46,183.27,187.74,29.06,187.74,29.06Z" style="fill:#1976d2"/><circle cx="1084.12" cy="1227.34" r="69.29" transform="translate(-550.33 1126.07) rotate(-45)" style="fill:#1a2e35"/><path d="M1084.12,1296.73a69.39,69.39,0,1,1,49.06-20.33A68.93,68.93,0,0,1,1084.12,1296.73Zm0-138.58a69.21,69.21,0,1,0,48.93,20.27A68.75,68.75,0,0,0,1084.12,1158.15Z" style="fill:#1a2e35"/><circle cx="870.46" cy="1188.73" r="51.97" transform="translate(-253.42 236.01) rotate(-13.5)" style="fill:#1a2e35"/><circle cx="800.99" cy="1012.81" r="42.46" transform="translate(-481.56 863.03) rotate(-45)" style="fill:#1a2e35"/><path d="M822,984.41H874.3a0,0,0,0,1,0,0v19.53a0,0,0,0,1,0,0H822a2.45,2.45,0,0,1-2.45-2.45V986.87A2.45,2.45,0,0,1,822,984.41Z" transform="translate(2135.41 1207.3) rotate(139.82)" style="fill:#1a2e35"/><path d="M788.06,944.26h52a.35.35,0,0,1,.35.35v18.82a.35.35,0,0,1-.35.35h-52a2.45,2.45,0,0,1-2.45-2.45V946.72A2.45,2.45,0,0,1,788.06,944.26Z" transform="translate(1767.03 141.03) rotate(90)" style="fill:#1a2e35"/><path d="M760.81,946.13h52a.35.35,0,0,1,.35.35v18.82a.35.35,0,0,1-.35.35h-52a2.45,2.45,0,0,1-2.45-2.45V948.58A2.45,2.45,0,0,1,760.81,946.13Z" transform="translate(1547.05 -19.59) rotate(77.39)" style="fill:#1a2e35"/><path d="M733.16,957.72h52a.35.35,0,0,1,.35.35v18.82a.35.35,0,0,1-.35.35h-52a2.45,2.45,0,0,1-2.45-2.45V960.17a2.45,2.45,0,0,1,2.45-2.45Z" transform="translate(1216.92 -172.79) rotate(60)" style="fill:#1a2e35"/><rect x="1662.32" y="1245.14" width="50.8" height="344.74" transform="translate(3795.6 2061.39) rotate(156.96)" style="fill:#1976d2"/><circle cx="1597.48" cy="1234.57" r="69.29" transform="translate(-377.13 1655.31) rotate(-49.73)" style="fill:#1a2e35"/><path d="M1597.56,1304a69.49,69.49,0,1,1,32.34-8.08A69.35,69.35,0,0,1,1597.56,1304Zm-.17-138.64A69.21,69.21,0,1,0,1663.6,1255l.09,0-.09,0a69.21,69.21,0,0,0-45.73-86.52A69.7,69.7,0,0,0,1597.39,1165.35Z" style="fill:#1a2e35"/><circle cx="1687.72" cy="1427.73" r="51.97" transform="translate(-139.78 2671.53) rotate(-74.47)" style="fill:#1a2e35"/><circle cx="1766.04" cy="1589.43" r="42.46" transform="translate(-606.63 1714.31) rotate(-45)" style="fill:#1a2e35"/><path d="M1703.44,1611.88h52.33a0,0,0,0,1,0,0v19.53a0,0,0,0,1,0,0h-52.33A2.45,2.45,0,0,1,1701,1629v-14.62A2.45,2.45,0,0,1,1703.44,1611.88Z" transform="translate(-555.83 2253.62) rotate(-58.64)" style="fill:#1a2e35"/><path d="M1748.31,1639.23h52a.35.35,0,0,1,.35.35v18.82a.35.35,0,0,1-.35.35h-52a2.45,2.45,0,0,1-2.45-2.45v-14.62a2.45,2.45,0,0,1,2.45-2.45Z" transform="translate(770.55 3853.12) rotate(-108.46)" style="fill:#1a2e35"/><path d="M1773.57,1628.83h52a.35.35,0,0,1,.35.35V1648a.35.35,0,0,1-.35.35h-52a2.45,2.45,0,0,1-2.45-2.45v-14.62A2.45,2.45,0,0,1,1773.57,1628.83Z" transform="translate(1323.14 4024.73) rotate(-121.07)" style="fill:#1a2e35"/><path d="M1796.13,1609.08h52a.35.35,0,0,1,.35.35v18.82a.35.35,0,0,1-.35.35h-52a2.45,2.45,0,0,1-2.45-2.45v-14.62a2.45,2.45,0,0,1,2.45-2.45Z" transform="translate(2110.55 4038.18) rotate(-138.46)" style="fill:#1a2e35"/><path d="M1063.39,1155.27s5,486.38,278,495.89,284.39-492.41,284.39-495.89c0,0-32.24-72.53-281.17-69.69S1063.39,1155.27,1063.39,1155.27Z" style="fill:#1976d2"/><rect x="1189.49" y="1011.13" width="285.23" height="58.51" rx="7.35" transform="translate(2664.22 2080.76) rotate(180)" style="fill:#1a2e35"/><rect x="1322.21" y="536.42" width="19.92" height="100.72" transform="translate(2664.33 1173.55) rotate(180)" style="fill:#1a2e35"/><circle cx="1623.23" cy="879.89" r="58.52" transform="translate(-159.51 399.34) rotate(-13.37)" style="fill:#1976d2"/><circle cx="1032.38" cy="876.03" r="58.52" transform="translate(-168.21 250.08) rotate(-12.78)" style="fill:#1976d2"/><path d="M1320.55,615.3s-238-2.86-275.64,203.25,163.57,210,221.45,213.86c26.25,1.77,82.4,2,132,1.1,109.7-1.91,187.21-23.14,213.59-124.91a193.57,193.57,0,0,0,5.92-36.45C1624.8,760.6,1549.29,609.81,1320.55,615.3Z" style="fill:#1976d2"/><path d="M1493.18,929.22l-345.72,5.4A65.62,65.62,0,0,1,1080.82,870h0a65.62,65.62,0,0,1,64.59-66.64l345.72-5.4a65.63,65.63,0,0,1,66.64,64.59h0A65.63,65.63,0,0,1,1493.18,929.22Z" style="fill:#1a2e35"/><path d="M1219.2,862.87a21.06,21.06,0,1,1-16.62-24.71A21.07,21.07,0,0,1,1219.2,862.87Z" style="fill:#fff"/><path d="M1460.72,859a21.06,21.06,0,1,1-16.61-24.72A21.06,21.06,0,0,1,1460.72,859Z" style="fill:#fff"/><path d="M1426,1348.43a94.11,94.11,0,1,1-87-100.72A94.11,94.11,0,0,1,1426,1348.43Z" style="fill:#1a2e35"/><path d="M1400.51,1346.57a68.58,68.58,0,1,1-63.4-73.39A68.58,68.58,0,0,1,1400.51,1346.57Z" style="fill:#fff"/><circle cx="1332.16" cy="534.41" r="32.83" transform="translate(12.3 1098.51) rotate(-45)" style="fill:#1976d2"/><path d="M1279.74,853.16c1.56.17.78,7.53,5.38,17.32a43.53,43.53,0,0,0,11.18,14.7,33.77,33.77,0,0,0,40.83,3.73,43.66,43.66,0,0,0,13.66-12.43c6.29-8.8,6.86-16.18,8.43-16.06.61,0,1.25,1.87,1.25,5.35a32.71,32.71,0,0,1-3.83,14.23,43.8,43.8,0,0,1-14.78,16.45,40,40,0,0,1-51.58-4.71,43.83,43.83,0,0,1-11.56-18.86,32.65,32.65,0,0,1-1.19-14.68C1278.17,854.77,1279.13,853.06,1279.74,853.16Z" style="fill:#fff"/><path d="M1596.58,949.27c-.35-.2,3.92-6.67,8-18.36s7.89-28.45,9.65-47.27a350.23,350.23,0,0,0,1.11-48.41c-.29-6.19-.58-11.21-.86-14.68s-.32-5.39-.19-5.4.46,1.88.94,5.33,1,8.46,1.47,14.68a294.68,294.68,0,0,1-.55,48.66c-1.77,19-5.7,35.93-10.29,47.56a91.75,91.75,0,0,1-6.3,13.38C1597.76,947.74,1596.7,949.34,1596.58,949.27Z" style="fill:#1a2e35"/><path d="M1045.45,811.81c.12.05-.3,1.93-1.18,5.3-.46,1.67-1,3.73-1.48,6.15s-1.21,5.14-1.67,8.21a182.33,182.33,0,0,0-2.6,21.61,178.87,178.87,0,0,0,4.69,52.91,182.73,182.73,0,0,0,6.37,20.82c1,2.94,2.17,5.5,3.09,7.79s1.8,4.22,2.54,5.79c1.46,3.16,2.21,4.94,2.09,5s-1.09-1.6-2.76-4.67c-.86-1.53-1.85-3.42-2.85-5.69s-2.29-4.8-3.38-7.74a162.25,162.25,0,0,1-6.83-20.88,184,184,0,0,1-4.51-26.54,181.65,181.65,0,0,1-.23-26.91,161.82,161.82,0,0,1,3-21.76c.55-3.08,1.35-5.8,2-8.21s1.24-4.45,1.81-6.1C1044.65,813.58,1045.32,811.77,1045.45,811.81Z" style="fill:#1a2e35"/><path d="M1062.26,1154.84a8.4,8.4,0,0,1,1.43.42l4.13,1.4,15.82,5.58,11.41,4.07c4.2,1.41,8.83,2.73,13.77,4.27,9.91,2.94,21.06,6.75,33.74,9.73l19.79,5.08c6.88,1.73,14.17,3,21.64,4.65,14.92,3.42,31.11,5.75,48.09,8.5a784.69,784.69,0,0,0,223.11,0c17-2.75,33.18-5.07,48.1-8.5,7.47-1.62,14.76-2.91,21.65-4.64l19.78-5.07c12.68-3,23.83-6.79,33.74-9.73,4.94-1.54,9.57-2.86,13.77-4.27l11.41-4.07,15.82-5.57,4.13-1.4a8.4,8.4,0,0,1,1.43-.42,9.26,9.26,0,0,1-1.36.6l-4.06,1.58-15.71,5.92-11.36,4.24c-4.19,1.45-8.81,2.83-13.74,4.41-9.89,3-21,6.95-33.72,10l-19.79,5.2c-6.89,1.77-14.18,3.1-21.66,4.76-14.94,3.5-31.16,5.89-48.17,8.69a772,772,0,0,1-223.62,0c-17-2.8-33.23-5.19-48.17-8.7-7.48-1.66-14.77-3-21.66-4.76l-19.79-5.21c-12.68-3.07-23.82-7-33.72-10-4.93-1.59-9.55-3-13.73-4.42l-11.37-4.24-15.7-5.92-4.07-1.59A9.26,9.26,0,0,1,1062.26,1154.84Z" style="fill:#1a2e35"/><g style="opacity:0.30000000000000004"><path d="M1063.39,1155.27s32.24-66.85,281.18-69.69,281.17,69.69,281.17,69.69S1374.63,1279.12,1063.39,1155.27Z"/></g><path d="M1290.43,630.71a2.51,2.51,0,0,1-.86.15l-2.52.23c-2.2.22-5.48.29-9.66.8a260.69,260.69,0,0,0-35.12,5.82,254.9,254.9,0,0,0-174.73,144.2,260.7,260.7,0,0,0-12.37,33.37c-1.29,4-2,7.21-2.62,9.34l-.7,2.42c-.17.55-.27.82-.31.81a3.23,3.23,0,0,1,.11-.85l.52-2.48c.52-2.15,1.09-5.39,2.27-9.44a236.87,236.87,0,0,1,11.86-33.73,251,251,0,0,1,26.16-46.11,247.25,247.25,0,0,1,99.27-81.92A251,251,0,0,1,1242,636.38a236.21,236.21,0,0,1,35.37-5.24c4.2-.39,7.49-.34,9.71-.44l2.52,0A3.1,3.1,0,0,1,1290.43,630.71Z" style="fill:#fff"/><path d="M1057.58,916.23c-.22.1-1.66-2.67-3.38-7.4a105.34,105.34,0,0,1-6.06-38.66c.2-5,.71-8.1.95-8.08.61,0-.23,12.41,2.17,27.4S1058.15,916,1057.58,916.23Z" style="fill:#fff"/><path d="M995.17,897.07c-.1.08-.85-.6-2-2a36.45,36.45,0,0,1-4.2-6.48,42.33,42.33,0,0,1,6.35-47.87,35.82,35.82,0,0,1,5.74-5.16c1.49-1,2.39-1.51,2.46-1.41.22.28-3.13,2.54-7.16,7.46A43.77,43.77,0,0,0,990.19,888C992.81,893.8,995.44,896.86,995.17,897.07Z" style="fill:#fff"/><path d="M1334.34,511.53c-.08.37-3.38-.85-8.73-.21a22.74,22.74,0,0,0-19.43,30.27c1.64,5.12,4.12,7.62,3.83,7.85-.09.07-.77-.46-1.8-1.65a20.33,20.33,0,0,1-3.32-5.75,23.28,23.28,0,0,1,20.6-32.08,20.07,20.07,0,0,1,6.61.63C1333.61,511,1334.38,511.42,1334.34,511.53Z" style="fill:#fff"/><path d="M1657.57,852.08c-.4.44-6.17-5.07-14.89-9.24s-16.57-5.39-16.48-6,8.29-.19,17.33,4.23S1658,851.8,1657.57,852.08Z" style="fill:#fff"/><path d="M1149,1501.42s-.19-.23-.48-.71-.72-1.32-1.21-2.19l-4.5-8.51-3.2-6.18c-1.07-2.32-2.24-4.82-3.48-7.5-2.53-5.38-5.37-11.52-8.13-18.47-1.42-3.46-2.91-7.09-4.45-10.86s-2.9-7.81-4.42-11.93c-3.19-8.2-5.89-17.2-9.07-26.56-5.81-18.9-11.52-39.88-16.52-62.14s-8.65-43.7-11.61-63.25c-2.73-19.57-4.89-37.24-6.08-52.14-.72-7.44-1.16-14.19-1.53-20.11s-.69-11-.81-15.2-.24-7.25-.32-9.62c0-1,0-1.82,0-2.5a3.11,3.11,0,0,1,0-.86,2.68,2.68,0,0,1,.14.85c.07.68.14,1.5.23,2.49.17,2.36.39,5.56.68,9.6s.62,9.25,1.14,15.16,1,12.64,1.81,20.06c1.36,14.86,3.66,32.49,6.48,52,3,19.49,6.85,40.85,11.73,63.09s10.64,43.15,16.34,62c3.13,9.35,5.76,18.35,8.88,26.55,1.48,4.12,2.92,8.11,4.3,11.94s3,7.4,4.33,10.87c2.67,7,5.41,13.13,7.84,18.54l3.33,7.55c1.11,2.27,2.12,4.36,3,6.25l4.18,8.66c.41.91.76,1.65,1,2.27A3.16,3.16,0,0,1,1149,1501.42Z" style="fill:#fff"/><path d="M1003.7,1199c0,.53-12.17.1-27.1-1s-27-2.36-27-2.89,12.18-.1,27.11,1S1003.74,1198.51,1003.7,1199Z" style="fill:#fff"/><path d="M864.17,1119.85c-.47.25-6.79-10.5-14.12-24s-12.88-24.69-12.42-25,6.79,10.51,14.12,24S864.64,1119.6,864.17,1119.85Z" style="fill:#fff"/><path d="M1280.51,1618.37c0,.13-1.56-.07-4.34-.53a91.2,91.2,0,0,1-11.6-2.81,120,120,0,0,1-16.55-6.35,125.8,125.8,0,0,1-35.39-24.89,119.68,119.68,0,0,1-11.58-13.42,91.44,91.44,0,0,1-6.56-10c-1.38-2.46-2.09-3.84-2-3.91.31-.19,3.42,5.21,9.61,13a135.37,135.37,0,0,0,11.75,13,134.81,134.81,0,0,0,34.92,24.56,137.2,137.2,0,0,0,16.18,6.65C1274.45,1616.91,1280.58,1618,1280.51,1618.37Z" style="fill:#fff"/><path d="M1337.41,1446.77a12.56,12.56,0,0,1-2.6.27,68.79,68.79,0,0,1-7.49.22,98.39,98.39,0,0,1-27.2-4.42,112.38,112.38,0,0,1-17.71-7.12,115.17,115.17,0,0,1-18.42-11.9,99.86,99.86,0,0,1-38.49-88.65,116,116,0,0,1,3.88-21.58,113.6,113.6,0,0,1,6.89-17.8,97.86,97.86,0,0,1,15.35-22.89,66.27,66.27,0,0,1,5.27-5.32,12.64,12.64,0,0,1,2-1.72c.14.15-2.47,2.63-6.68,7.54a104.47,104.47,0,0,0-14.68,23,113.91,113.91,0,0,0-6.57,17.65,115.21,115.21,0,0,0-3.66,21.28,99.17,99.17,0,0,0,37.83,87.12,108.26,108.26,0,0,0,35.43,19.11,104,104,0,0,0,26.82,5C1333.8,1446.78,1337.4,1446.57,1337.41,1446.77Z" style="fill:#fff"/><path d="M888.36,1154.69c-.16.32-2.87-1.07-7.55-2.13a41.35,41.35,0,0,0-35.07,8.41c-3.69,3.07-5.48,5.54-5.76,5.33s1.25-2.88,4.85-6.35a38.26,38.26,0,0,1,36.32-8.71C885.94,1152.69,888.46,1154.54,888.36,1154.69Z" style="fill:#fff"/><path d="M1436.05,785.91c0,.53-45.54,1-101.7,1s-101.72-.44-101.72-1,45.53-1,101.72-1S1436.05,785.38,1436.05,785.91Z" style="fill:#fff"/><path d="M1262.5,1017.83a6.37,6.37,0,0,1-1.72.28l-5,.42c-2.16.19-4.8.36-7.87.41s-6.58.24-10.44.12a269.13,269.13,0,0,1-27.14-1.63,275.57,275.57,0,0,1-64.71-15.24,269.73,269.73,0,0,1-25-10.65c-3.51-1.62-6.57-3.34-9.29-4.77s-5-2.74-6.86-3.87l-4.25-2.6a6.67,6.67,0,0,1-1.41-1,5.48,5.48,0,0,1,1.61.68l4.42,2.27c1.9,1,4.23,2.26,7,3.57s5.84,3,9.38,4.49c7,3.27,15.46,6.75,25,10.22a295.94,295.94,0,0,0,64.31,15.14c10.11,1.17,19.26,1.84,27,2,3.85.21,7.34.13,10.4.17s5.7,0,7.85-.08l5-.06A5.64,5.64,0,0,1,1262.5,1017.83Z" style="fill:#fff"/><path d="M1558.56,1185a3.34,3.34,0,0,1-.89.41l-2.66,1-10.32,3.67c-4.48,1.61-10,3.5-16.47,5.4s-13.79,4.36-22,6.41l-12.91,3.42c-4.5,1.17-9.24,2.13-14.11,3.26-9.73,2.36-20.26,4.21-31.32,6.3a656.63,656.63,0,0,1-145.87,9c-11.23-.72-21.91-1.27-31.86-2.42-5-.53-9.79-.9-14.4-1.51l-13.23-1.81c-8.45-1-16-2.54-22.66-3.67s-12.37-2.29-17-3.34l-10.69-2.38-2.77-.67a3.79,3.79,0,0,1-.93-.29,3.71,3.71,0,0,1,1,.1l2.81.48,10.75,2c4.66.94,10.37,2,17,3s14.22,2.43,22.67,3.38l13.22,1.68c4.59.57,9.41.9,14.37,1.4,9.93,1.08,20.59,1.56,31.79,2.23,22.43.9,47.13,1,73-.56,25.85-1.67,50.35-4.74,72.49-8.38,11-2,21.56-3.82,31.28-6.1,4.86-1.1,9.6-2,14.09-3.15l12.92-3.29c8.26-2,15.59-4.29,22.08-6.12s12-3.58,16.54-5.08l10.43-3.33,2.73-.82A4.22,4.22,0,0,1,1558.56,1185Z" style="fill:#fff"/><rect x="152.96" y="322.58" width="708" height="351" rx="175.5" style="fill:#1a2e35"/><polygon points="663.76 673.58 887.96 775.58 775.96 559.58 663.76 673.58" style="fill:#1a2e35"/><rect x="178.97" y="350.58" width="656.99" height="295" rx="147.5" style="fill:#1976d2"/><path d="M288.29,456h8l17,65.12L328,456H340.1l-20.28,83.06H307.94l-15.31-58-16,58H264.75L244.47,456h12.11l14.68,65.12Z" style="fill:#fff"/><path d="M352.67,456h11.66v83.06H352.67Zm5.66,0H406V467.1h-47.7Zm0,36.27h41.42v11.08H358.33Zm0,35.71H406v11.08h-47.7Z" style="fill:#fff"/><path d="M422.6,456h11.65v83.06H422.6Zm5.83,72H476v11.08H428.43Z" style="fill:#fff"/><path d="M499.41,536.11a26,26,0,0,1-10.14-10.85,35.28,35.28,0,0,1-3.6-16.29V486.18a35.21,35.21,0,0,1,3.6-16.28A26.23,26.23,0,0,1,499.41,459a29.29,29.29,0,0,1,15.17-3.85,28.62,28.62,0,0,1,13.14,3,27.78,27.78,0,0,1,10,8.66,32.47,32.47,0,0,1,5.46,13H531.26a18.62,18.62,0,0,0-3.63-6.94,17.93,17.93,0,0,0-6-4.72,16.8,16.8,0,0,0-16,.8,16.36,16.36,0,0,0-5.94,6.89,23.67,23.67,0,0,0-2.11,10.31V509a23.73,23.73,0,0,0,2.11,10.29,16.1,16.1,0,0,0,5.94,6.88,16.29,16.29,0,0,0,8.92,2.43,17.17,17.17,0,0,0,7.11-1.54,16.83,16.83,0,0,0,5.94-4.57,18.29,18.29,0,0,0,3.63-7.2H543.2a32.35,32.35,0,0,1-5.49,13,27.93,27.93,0,0,1-10.05,8.65,28.37,28.37,0,0,1-13.08,3.06A29.48,29.48,0,0,1,499.41,536.11Z" style="fill:#fff"/><path d="M569.65,536.14a25.93,25.93,0,0,1-10.26-10.74,34.22,34.22,0,0,1-3.62-16.08V485.78a34.19,34.19,0,0,1,3.62-16.08A25.93,25.93,0,0,1,569.65,459a32.74,32.74,0,0,1,30.62,0,25.91,25.91,0,0,1,10.25,10.74,34.19,34.19,0,0,1,3.63,16.08v23.54a34.22,34.22,0,0,1-3.63,16.08,25.91,25.91,0,0,1-10.25,10.74,32.74,32.74,0,0,1-30.62,0Zm24.36-10a15.55,15.55,0,0,0,6.06-6.57,21.61,21.61,0,0,0,2.14-9.85V485.38a21.65,21.65,0,0,0-2.14-9.86A15.67,15.67,0,0,0,594,469a18.9,18.9,0,0,0-18.11,0,15.65,15.65,0,0,0-6,6.57,21.65,21.65,0,0,0-2.14,9.86v24.34a21.61,21.61,0,0,0,2.14,9.85,15.53,15.53,0,0,0,6,6.57,18.9,18.9,0,0,0,18.11,0Z" style="fill:#fff"/><path d="M691.56,456h10.91v83.06H691.1V476.87l.58,3.65-20.46,47h-8.11l-20.45-45.87.57-4.8v62.21H631.86V456h10.91l24.4,54.84Z" style="fill:#fff"/><path d="M723,456h11.65v83.06H723Zm5.65,0H776.4V467.1H728.69Zm0,36.27h41.42v11.08H728.69Zm0,35.71H776.4v11.08H728.69Z" style="fill:#fff"/></svg>